<?xml version="1.0" standalone="no"?>
<!DOCTYPE svg PUBLIC "-//W3C//DTD SVG 20010904//EN"
 "http://www.w3.org/TR/2001/REC-SVG-20010904/DTD/svg10.dtd">
<svg version="1.0" xmlns="http://www.w3.org/2000/svg"
 width="64.000000pt" height="64.000000pt" viewBox="0 0 64.000000 64.000000"
 preserveAspectRatio="xMidYMid meet">

<g transform="translate(0.000000,64.000000) scale(0.100000,-0.100000)"
fill="#000000" stroke="none">
<path d="M251 589 c-213 -42 -298 -306 -152 -472 79 -90 224 -117 335 -63 129
63 188 203 147 349 -14 47 -13 48 15 78 l28 29 -22 22 -22 22 -23 -22 c-29
-27 -31 -27 -71 3 -65 50 -154 70 -235 54z m174 -33 c28 -13 59 -33 69 -45 18
-20 19 -23 3 -38 -15 -16 -18 -15 -39 3 l-23 19 19 -23 20 -23 -82 -82 -82
-82 -55 55 -55 54 -22 -22 -23 -22 78 -77 77 -78 95 95 c109 109 120 109 113
6 -3 -52 -10 -74 -33 -108 -84 -118 -266 -118 -350 1 -24 34 -30 54 -33 109
-3 56 0 74 20 112 36 66 93 103 169 108 42 3 57 7 46 13 -24 14 -117 -8 -153
-36 -81 -62 -113 -144 -93 -237 9 -42 21 -62 63 -104 42 -41 62 -54 104 -63
99 -21 178 13 250 110 20 27 32 111 21 158 -9 42 -1 71 21 71 15 0 30 -63 30
-124 -1 -289 -400 -370 -519 -106 -44 98 -18 233 60 307 79 75 206 95 304 49z
m176 -32 c11 -13 -8 -36 -139 -167 l-152 -152 -72 72 c-69 69 -72 74 -55 90
16 16 20 14 72 -37 l55 -55 133 133 c72 72 135 132 138 132 4 0 12 -7 20 -16z"/>
<path d="M380 516 c0 -2 7 -6 15 -10 8 -3 15 -1 15 4 0 6 -7 10 -15 10 -8 0
-15 -2 -15 -4z"/>
</g>
</svg>
