<?xml version="1.0" standalone="no"?>
<!DOCTYPE svg PUBLIC "-//W3C//DTD SVG 20010904//EN"
 "http://www.w3.org/TR/2001/REC-SVG-20010904/DTD/svg10.dtd">
<svg version="1.0" xmlns="http://www.w3.org/2000/svg"
 width="50.000000pt" height="50.000000pt" viewBox="0 0 50.000000 50.000000"
 preserveAspectRatio="xMidYMid meet">

<g transform="translate(0.000000,50.000000) scale(0.100000,-0.100000)"
fill="#000000" stroke="none">
<path d="M40 440 c0 -6 72 -10 205 -10 l205 0 0 -160 0 -160 -130 0 c-80 0
-130 -4 -130 -10 0 -6 53 -10 140 -10 87 0 140 -4 140 -10 0 -6 -53 -10 -140
-10 -87 0 -140 -4 -140 -10 0 -6 55 -10 145 -10 121 0 147 3 151 15 4 8 1 21
-5 28 -6 8 -12 80 -13 183 l-3 169 -212 3 c-140 1 -213 -1 -213 -8z"/>
<path d="M62 380 c-49 -20 -48 -101 3 -120 55 -21 106 30 85 85 -7 19 -50 49
-63 44 -1 0 -12 -4 -25 -9z m66 -22 c15 -15 15 -61 0 -76 -15 -15 -61 -15 -76
0 -15 15 -15 61 0 76 7 7 24 12 38 12 14 0 31 -5 38 -12z"/>
<path d="M200 380 c0 -6 27 -10 60 -10 33 0 60 4 60 10 0 6 -27 10 -60 10 -33
0 -60 -4 -60 -10z"/>
<path d="M350 380 c0 -5 16 -10 35 -10 19 0 35 5 35 10 0 6 -16 10 -35 10 -19
0 -35 -4 -35 -10z"/>
<path d="M200 330 c0 -6 43 -10 110 -10 67 0 110 4 110 10 0 6 -43 10 -110 10
-67 0 -110 -4 -110 -10z"/>
<path d="M243 244 c-28 -36 -31 -37 -63 -26 -58 21 -118 15 -145 -13 -22 -21
-25 -33 -25 -90 0 -92 19 -81 22 13 l3 77 95 0 96 0 31 35 c27 30 33 32 38 18
4 -11 -5 -33 -26 -63 -34 -48 -36 -48 -101 -29 -16 5 -18 -2 -18 -55 0 -34 4
-61 10 -61 6 0 10 23 10 50 l0 50 38 -6 c38 -6 39 -5 71 45 18 27 31 58 29 68
-6 31 -34 25 -65 -13z"/>
</g>
</svg>
