<?xml version="1.0" standalone="no"?>
<!DOCTYPE svg PUBLIC "-//W3C//DTD SVG 20010904//EN"
 "http://www.w3.org/TR/2001/REC-SVG-20010904/DTD/svg10.dtd">
<svg version="1.0" xmlns="http://www.w3.org/2000/svg"
 width="60.000000pt" height="60.000000pt" viewBox="0 0 60.000000 60.000000"
 preserveAspectRatio="xMidYMid meet">

<g transform="translate(0.000000,60.000000) scale(0.100000,-0.100000)"
fill="#000000" stroke="none">
<path d="M130 590 c0 -5 5 -10 10 -10 6 0 10 -13 10 -29 0 -28 -1 -29 -30 -18
-25 10 -34 8 -57 -9 -18 -14 -29 -32 -31 -52 -4 -39 23 -99 51 -114 18 -9 18
-7 -5 20 -29 34 -43 81 -34 110 9 29 48 43 77 28 22 -10 25 -19 30 -101 6
-104 11 -116 74 -173 39 -36 46 -47 43 -74 -3 -29 -7 -34 -38 -38 -31 -4 -35
-9 -38 -37 l-3 -32 123 -3 c108 -3 123 -5 126 -20 3 -16 -9 -18 -136 -18 -103
0 -142 3 -145 13 -3 6 -6 2 -6 -10 -1 -23 0 -23 149 -23 l150 0 0 30 c0 19 -7
33 -19 40 -11 5 -21 20 -23 32 -2 13 -11 24 -23 26 -20 4 -20 3 -1 -11 12 -9
17 -20 13 -31 -6 -14 -20 -16 -99 -14 -85 3 -93 5 -93 23 0 18 8 20 63 23 l62
3 0 40 c0 35 6 46 46 82 62 56 67 68 73 172 5 82 8 91 30 101 29 15 68 1 77
-28 9 -29 -5 -76 -34 -110 -23 -27 -23 -29 -5 -20 28 15 55 75 51 114 -2 20
-13 38 -31 52 -23 17 -32 19 -57 9 -29 -11 -30 -10 -30 18 0 16 5 29 10 29 6
0 10 5 10 10 0 6 -63 10 -170 10 -107 0 -170 -4 -170 -10z m110 -115 c0 -58 3
-105 8 -105 4 0 18 7 30 16 20 14 24 14 44 0 12 -9 26 -16 30 -16 5 0 7 37 6
83 l-2 82 -3 -73 c-4 -65 -6 -73 -21 -66 -22 9 -42 9 -64 -1 -16 -6 -18 1 -18
89 l0 96 95 0 95 0 0 -97 c-1 -139 -9 -168 -69 -226 -44 -42 -51 -54 -51 -88
0 -32 -3 -39 -20 -39 -17 0 -20 7 -20 39 0 34 -7 46 -51 88 -60 58 -68 87 -69
226 l0 97 40 0 40 0 0 -105z"/>
</g>
</svg>
