<?xml version="1.0" standalone="no"?>
<!DOCTYPE svg PUBLIC "-//W3C//DTD SVG 20010904//EN"
 "http://www.w3.org/TR/2001/REC-SVG-20010904/DTD/svg10.dtd">
<svg version="1.0" xmlns="http://www.w3.org/2000/svg"
 width="50.000000pt" height="50.000000pt" viewBox="0 0 50.000000 50.000000"
 preserveAspectRatio="xMidYMid meet">

<g transform="translate(0.000000,50.000000) scale(0.100000,-0.100000)"
fill="#000000" stroke="none">
<path d="M110 460 c-11 -11 -20 -24 -20 -30 0 -13 37 -50 50 -50 6 0 19 9 30
20 11 11 20 25 20 30 0 13 -37 50 -50 50 -5 0 -19 -9 -30 -20z m55 -30 c0 -18
-6 -26 -23 -28 -13 -2 -25 3 -28 12 -10 26 4 48 28 44 17 -2 23 -10 23 -28z"/>
<path d="M320 460 c-11 -11 -20 -24 -20 -30 0 -5 9 -19 20 -30 11 -11 25 -20
30 -20 6 0 19 9 30 20 11 11 20 25 20 30 0 6 -9 19 -20 30 -11 11 -24 20 -30
20 -5 0 -19 -9 -30 -20z m55 -30 c0 -18 -6 -26 -23 -28 -13 -2 -25 3 -28 12
-10 26 4 48 28 44 17 -2 23 -10 23 -28z"/>
<path d="M60 350 c-16 -16 -20 -33 -20 -95 0 -64 3 -77 20 -87 16 -10 20 -24
20 -69 0 -64 9 -76 60 -76 46 0 60 12 61 56 l2 36 6 -39 c3 -21 14 -44 23 -50
27 -17 52 5 59 50 l6 39 2 -37 c1 -40 13 -52 51 -54 38 -1 50 14 50 62 0 31 4
44 14 44 16 0 46 53 46 80 0 31 -40 135 -57 148 -18 13 -70 16 -97 6 -31 -12
-15 -19 41 -19 l58 0 22 -60 c12 -33 22 -68 22 -78 2 -34 -23 -11 -40 39 -24
67 -24 41 0 -35 l19 -61 -54 0 -54 0 0 34 c0 45 -22 66 -70 66 -60 0 -70 -17
-70 -121 0 -72 -3 -89 -15 -89 -12 0 -15 14 -15 70 0 40 -4 70 -10 70 -6 0
-10 -30 -10 -70 0 -56 -3 -70 -15 -70 -13 0 -15 21 -15 125 0 77 -4 125 -10
125 -5 0 -10 -25 -10 -55 0 -31 -4 -55 -10 -55 -7 0 -10 30 -8 83 l3 82 80 5
c56 4 73 7 55 12 -50 15 -119 9 -140 -12z m240 -169 c0 -34 -4 -51 -15 -55
-10 -3 -15 -19 -15 -46 0 -33 -3 -40 -20 -40 -17 0 -20 7 -20 40 0 27 -5 43
-15 46 -11 4 -15 21 -15 55 l0 49 50 0 50 0 0 -49z m40 -96 c0 -25 -4 -45 -10
-45 -5 0 -10 20 -10 45 0 25 5 45 10 45 6 0 10 -20 10 -45z m40 0 c0 -25 -4
-45 -10 -45 -5 0 -10 20 -10 45 0 25 5 45 10 45 6 0 10 -20 10 -45z"/>
<path d="M226 324 c-9 -8 -16 -19 -16 -24 0 -11 29 -40 40 -40 11 0 40 29 40
40 0 5 -7 16 -16 24 -8 9 -19 16 -24 16 -5 0 -16 -7 -24 -16z m44 -24 c0 -13
-7 -20 -20 -20 -13 0 -20 7 -20 20 0 13 7 20 20 20 13 0 20 -7 20 -20z"/>
</g>
</svg>
