<?xml version="1.0" standalone="no"?>
<!DOCTYPE svg PUBLIC "-//W3C//DTD SVG 20010904//EN"
 "http://www.w3.org/TR/2001/REC-SVG-20010904/DTD/svg10.dtd">
<svg version="1.0" xmlns="http://www.w3.org/2000/svg"
 width="80.000000pt" height="80.000000pt" viewBox="0 0 80.000000 80.000000"
 preserveAspectRatio="xMidYMid meet">

<g transform="translate(0.000000,80.000000) scale(0.100000,-0.100000)"
fill="#000000" stroke="none">
<path d="M173 691 c-22 -14 -37 -36 -53 -78 -12 -32 -22 -68 -22 -80 -1 -45
85 -176 172 -263 87 -87 218 -173 263 -172 12 0 48 10 80 22 42 16 64 31 78
53 24 41 18 61 -39 120 -62 63 -90 63 -153 1 l-47 -46 -56 37 c-53 35 -89 74
-130 139 l-18 28 46 47 c62 63 62 91 -1 153 -59 57 -79 63 -120 39z m109 -48
c26 -26 48 -56 48 -67 0 -11 -21 -42 -47 -68 l-48 -48 24 -45 c28 -53 115
-138 165 -162 l36 -17 48 47 c26 26 56 47 67 47 29 0 115 -89 115 -118 0 -34
-40 -68 -104 -88 -63 -20 -79 -16 -179 49 -114 72 -242 218 -287 326 -26 63
37 191 94 191 11 0 42 -21 68 -47z"/>
</g>
</svg>
