<?xml version="1.0" standalone="no"?>
<!DOCTYPE svg PUBLIC "-//W3C//DTD SVG 20010904//EN"
 "http://www.w3.org/TR/2001/REC-SVG-20010904/DTD/svg10.dtd">
<svg version="1.0" xmlns="http://www.w3.org/2000/svg"
 width="50.000000pt" height="50.000000pt" viewBox="0 0 50.000000 50.000000"
 preserveAspectRatio="xMidYMid meet">

<g transform="translate(0.000000,50.000000) scale(0.100000,-0.100000)"
fill="#000000" stroke="none">
<path d="M230 467 c0 -23 -22 -38 -37 -25 -20 16 -51 -15 -35 -35 13 -15 -2
-37 -25 -37 -7 0 -13 -9 -13 -20 0 -13 7 -20 19 -20 23 0 34 -23 18 -39 -17
-17 17 -49 36 -33 15 13 37 -2 37 -25 0 -7 9 -13 20 -13 11 0 20 6 20 14 0 22
24 38 38 24 18 -18 50 15 34 35 -13 15 2 37 25 37 7 0 13 9 13 20 0 11 -6 20
-13 20 -23 0 -38 22 -25 37 9 11 7 18 -5 30 -12 12 -19 14 -30 5 -15 -13 -37
2 -37 25 0 7 -9 13 -20 13 -11 0 -20 -6 -20 -13z m38 -28 c10 -16 19 -19 39
-14 21 5 24 3 19 -11 -9 -23 2 -54 20 -54 20 0 17 -13 -7 -28 -16 -10 -19 -19
-14 -39 5 -21 3 -24 -11 -19 -23 9 -54 -2 -54 -20 0 -20 -13 -17 -28 7 -10 16
-19 19 -39 14 -21 -5 -24 -3 -19 11 9 23 -2 54 -20 54 -20 0 -17 13 7 28 16
10 19 19 14 39 -5 21 -3 24 11 19 23 -9 54 2 54 20 0 20 13 17 28 -7z"/>
<path d="M220 380 c-11 -11 -20 -24 -20 -30 0 -5 9 -19 20 -30 11 -11 25 -20
30 -20 6 0 19 9 30 20 11 11 20 25 20 30 0 6 -9 19 -20 30 -11 11 -24 20 -30
20 -5 0 -19 -9 -30 -20z m55 -30 c0 -18 -6 -26 -23 -28 -13 -2 -25 3 -28 12
-10 26 4 48 28 44 17 -2 23 -10 23 -28z"/>
<path d="M100 207 c-49 -18 -79 -36 -60 -36 8 0 26 6 40 14 36 21 97 19 127
-4 13 -11 44 -23 69 -27 29 -4 44 -11 44 -21 0 -12 -14 -14 -70 -11 -75 3 -94
-5 -32 -16 68 -11 88 -6 151 34 62 40 96 51 89 28 -7 -20 -171 -127 -196 -127
-12 -1 -45 10 -72 24 -57 29 -78 31 -106 10 -22 -17 -12 -20 18 -4 16 9 33 5
89 -21 67 -31 68 -31 101 -14 46 24 175 111 183 125 9 14 -7 30 -36 34 -13 2
-36 6 -50 8 -14 2 -30 7 -36 10 -6 4 -33 -5 -60 -19 l-51 -26 -28 20 c-39 29
-72 34 -114 19z m260 -11 c0 -2 -11 -11 -25 -20 -31 -20 -58 -10 -30 11 17 12
55 18 55 9z m50 -10 c0 -10 -72 -48 -78 -41 -9 9 39 44 61 45 9 0 17 -2 17 -4z"/>
</g>
</svg>
