<?xml version="1.0" standalone="no"?>
<!DOCTYPE svg PUBLIC "-//W3C//DTD SVG 20010904//EN"
 "http://www.w3.org/TR/2001/REC-SVG-20010904/DTD/svg10.dtd">
<svg version="1.0" xmlns="http://www.w3.org/2000/svg"
 width="738.000000pt" height="724.000000pt" viewBox="0 0 738.000000 724.000000"
 preserveAspectRatio="xMidYMid meet">

<g transform="translate(0.000000,724.000000) scale(0.100000,-0.100000)"
fill="#000000" stroke="none">
<path d="M0 7225 c0 -13 417 -15 3690 -15 3273 0 3690 2 3690 15 0 13 -417 15
-3690 15 -3273 0 -3690 -2 -3690 -15z"/>
<path d="M3550 5323 c-139 -96 -234 -340 -355 -903 -19 -91 -39 -183 -45 -205
-5 -22 -28 -115 -49 -206 -102 -427 -216 -729 -356 -943 -21 -32 -9 -37 45
-19 60 21 122 64 201 143 84 83 135 129 187 166 23 16 43 40 45 54 3 14 35
122 70 240 36 118 94 316 130 440 103 355 161 470 237 470 84 0 142 -131 353
-795 53 -166 121 -357 181 -506 l54 -134 69 -35 c59 -30 79 -35 154 -38 157
-7 206 22 439 257 182 184 238 223 319 223 85 1 159 -49 270 -180 22 -26 73
-88 115 -138 108 -130 206 -200 309 -219 43 -8 187 3 187 15 0 4 -23 10 -51
14 -95 13 -212 89 -310 201 -40 46 -168 211 -262 339 -21 28 -47 62 -57 76
-11 13 -20 28 -20 33 0 8 43 54 357 377 191 197 195 202 246 299 27 50 45 91
42 91 -4 0 -27 -17 -53 -38 -26 -22 -166 -131 -312 -243 -146 -112 -294 -227
-330 -256 -36 -29 -73 -53 -84 -53 -10 0 -62 35 -115 78 -385 314 -651 525
-657 519 -15 -14 86 -179 165 -271 108 -126 366 -421 403 -461 15 -16 28 -37
28 -45 0 -22 -214 -303 -299 -392 -92 -97 -152 -138 -202 -138 -30 0 -42 6
-57 28 -26 36 -132 252 -167 338 -15 37 -33 82 -40 99 -36 82 -46 110 -93 245
-68 196 -100 293 -167 505 -109 348 -198 611 -242 713 -52 123 -114 224 -153
252 -35 25 -97 26 -130 3z m197 -458 c86 -173 155 -317 152 -319 -6 -6 -59 73
-175 262 -48 78 -91 142 -96 142 -4 0 -8 -60 -9 -132 0 -142 -11 -206 -22
-133 -3 22 -12 89 -18 148 -7 59 -15 104 -19 100 -4 -4 -26 -60 -49 -123 -80
-215 -114 -305 -158 -417 -23 -61 -43 -116 -43 -122 0 -6 -4 -11 -10 -11 -18
0 -23 -17 97 360 99 314 109 347 143 458 17 56 35 102 41 102 5 0 80 -142 166
-315z m-460 -637 c-3 -8 -6 -5 -6 6 -1 11 2 17 5 13 3 -3 4 -12 1 -19z"/>
<path d="M1795 4735 c-182 -29 -368 -106 -562 -232 -29 -18 -55 -38 -59 -44
-3 -6 19 -37 50 -68 31 -31 56 -60 56 -64 0 -5 -17 -34 -38 -65 -152 -227
-210 -549 -142 -790 67 -239 241 -425 478 -512 76 -28 103 -33 212 -37 131 -5
188 4 308 47 54 20 150 67 202 98 l29 18 -40 57 c-22 31 -44 57 -49 57 -4 0
-34 -13 -66 -29 -173 -84 -404 -75 -572 24 -73 42 -195 170 -245 255 -155 265
-105 644 115 885 45 49 54 54 126 71 108 25 302 25 402 0 274 -70 460 -267
509 -540 16 -88 14 -134 -14 -261 -32 -150 -63 -210 -164 -318 l-36 -39 54
-49 c30 -27 59 -49 65 -49 6 0 36 20 67 44 63 50 135 151 196 276 94 194 114
270 120 455 5 124 2 151 -17 225 -50 188 -151 334 -309 447 -86 62 -154 95
-256 124 -94 27 -298 34 -420 14z"/>
<path d="M2980 2998 c-58 -60 -110 -108 -116 -108 -6 0 -17 -7 -25 -16 -7 -9
-40 -29 -73 -46 -52 -26 -68 -30 -116 -25 -30 3 -68 12 -85 21 -25 13 -33 13
-50 2 -146 -94 -256 -126 -433 -126 -116 0 -213 16 -337 54 -43 14 -81 24 -83
22 -6 -7 134 -100 238 -158 58 -32 155 -75 215 -95 103 -34 118 -36 240 -37
111 -1 140 2 196 22 132 45 238 124 336 246 94 119 212 321 201 345 -2 3 -50
-42 -108 -101z"/>
<path d="M4615 2956 c-53 -28 -183 -30 -234 -3 -61 31 -55 8 34 -126 251 -381
547 -448 890 -203 44 32 91 69 105 83 29 29 28 29 -74 -6 -119 -42 -246 -37
-362 15 -83 37 -138 78 -234 174 l-85 87 -40 -21z"/>
<path d="M1323 32 c-1167 -2 -1323 -4 -1323 -17 0 -13 421 -15 3690 -15 3273
0 3690 2 3690 15 0 13 -145 15 -1242 16 -684 0 -1749 2 -2368 2 -619 1 -1720
1 -2447 -1z"/>
</g>
</svg>
