<?xml version="1.0" standalone="no"?>
<!DOCTYPE svg PUBLIC "-//W3C//DTD SVG 20010904//EN"
 "http://www.w3.org/TR/2001/REC-SVG-20010904/DTD/svg10.dtd">
<svg version="1.0" xmlns="http://www.w3.org/2000/svg"
 width="738.000000pt" height="1600.000000pt" viewBox="0 0 738.000000 1600.000000"
 preserveAspectRatio="xMidYMid meet">

<g transform="translate(0.000000,1600.000000) scale(0.100000,-0.100000)"
fill="#000000" stroke="none">
<path d="M0 13565 l0 -2435 3690 0 3690 0 0 2435 0 2435 -3690 0 -3690 0 0
-2435z m1075 2198 c-17 -46 -16 -69 5 -96 18 -22 29 -27 66 -27 25 0 44 -5 44
-11 0 -6 -15 -26 -34 -45 -29 -29 -41 -34 -81 -34 -40 0 -52 5 -81 34 -28 28
-34 42 -34 76 0 52 13 76 53 100 41 26 72 27 62 3z m391 -14 c19 -11 34 -24
34 -27 0 -4 -20 -18 -45 -31 l-44 -23 -47 27 -47 28 39 23 c48 29 67 30 110 3z
m4912 0 c42 -21 61 -43 48 -56 -3 -3 -31 6 -61 22 -47 23 -64 27 -106 22 -27
-3 -63 -16 -80 -28 -34 -24 -70 -19 -48 7 45 55 168 71 247 33z m560 5 c19
-13 22 -24 22 -89 0 -105 -1 -105 -212 -105 -204 0 -208 2 -208 105 0 103 4
105 208 105 135 0 172 -3 190 -16z m-5234 -41 c-4 -46 -6 -49 -13 -18 -8 33
-2 73 8 56 4 -6 6 -23 5 -38z m46 38 c0 -6 -4 -13 -10 -16 -5 -3 -10 1 -10 9
0 9 5 16 10 16 6 0 10 -4 10 -9z m101 -25 c-16 -19 -9 -79 11 -97 11 -10 18
-31 18 -53 l0 -36 -122 0 -121 0 23 25 c13 14 49 33 79 42 31 9 60 20 66 25
14 13 16 80 2 96 -10 13 -8 14 11 8 16 -6 24 -3 29 10 4 12 8 14 11 6 2 -7 -1
-18 -7 -26z m3769 -66 c0 -93 -1 -100 -20 -100 -19 0 -20 7 -20 93 0 95 3 107
27 107 10 0 13 -23 13 -100z m410 0 c0 -93 -1 -100 -20 -100 -19 0 -20 7 -20
93 0 95 3 107 27 107 10 0 13 -23 13 -100z m-5620 0 c0 -64 -3 -80 -15 -80
-12 0 -15 14 -15 64 0 59 -2 64 -20 59 -30 -8 -24 14 8 25 15 6 30 11 35 11 4
1 7 -35 7 -79z m140 72 c0 -4 -10 -12 -22 -17 -32 -15 -33 -32 -2 -32 32 0 45
-18 42 -57 -4 -40 -35 -59 -68 -43 -21 11 -25 21 -28 64 -2 42 1 56 17 72 20
20 61 29 61 13z m204 -14 c8 -13 7 -23 -2 -39 -10 -15 -11 -24 -3 -32 18 -18
12 -46 -13 -63 -21 -13 -29 -14 -52 -2 -32 15 -43 38 -20 38 9 0 16 -4 16 -10
0 -5 11 -10 25 -10 32 0 36 39 5 47 -11 3 -20 9 -20 13 0 4 9 10 20 13 11 3
20 12 20 21 0 21 -28 32 -43 17 -15 -15 -27 -14 -27 3 0 30 76 33 94 4z m130
0 c8 -13 7 -23 -2 -39 -10 -16 -10 -24 -1 -35 16 -20 3 -61 -23 -67 -25 -7
-69 11 -76 31 -2 6 3 12 12 12 9 0 16 -4 16 -10 0 -5 11 -10 25 -10 32 0 36
39 5 47 -11 3 -20 9 -20 13 0 4 9 10 20 13 26 7 28 47 2 47 -10 0 -23 -5 -30
-12 -15 -15 -26 -4 -18 17 8 22 75 16 90 -7z m4666 -78 c0 -73 -2 -80 -20 -80
-18 0 -20 7 -20 73 0 76 4 87 27 87 10 0 13 -20 13 -80z m410 0 c0 -73 -2 -80
-20 -80 -18 0 -20 7 -20 73 0 76 4 87 27 87 10 0 13 -20 13 -80z m412 42 c31
-30 14 -45 -25 -22 -37 23 -92 25 -127 5 -14 -8 -31 -14 -37 -15 -21 0 -14 29
10 41 57 31 144 27 179 -9z m-4622 8 c9 -16 8 -20 -5 -20 -8 0 -15 9 -15 20 0
11 2 20 5 20 2 0 9 -9 15 -20z m-1128 -5 c0 -5 -5 -11 -11 -13 -6 -2 -11 4
-11 13 0 9 5 15 11 13 6 -2 11 -8 11 -13z m748 -7 c38 -22 40 -26 40 -70 0
-27 -4 -48 -9 -48 -6 0 -26 9 -45 21 -33 19 -36 24 -36 70 0 27 2 49 6 49 3 0
23 -10 44 -22z m140 -28 c0 -48 -1 -50 -40 -70 -21 -11 -42 -20 -45 -20 -3 0
-5 22 -5 48 0 45 2 49 38 70 20 12 40 22 45 22 4 0 7 -22 7 -50z m5490 15 c0
-19 -4 -35 -10 -35 -5 0 -10 16 -10 35 0 19 5 35 10 35 6 0 10 -16 10 -35z
m-1520 -45 c0 -53 -2 -60 -20 -60 -17 0 -20 7 -20 44 0 54 8 76 26 76 10 0 14
-15 14 -60z m410 -1 c0 -52 -2 -60 -17 -57 -32 6 -29 118 2 118 12 0 15 -14
15 -61z m425 27 c19 -8 35 -19 35 -25 0 -16 -21 -24 -33 -12 -6 6 -23 11 -37
11 -14 0 -31 -5 -37 -11 -12 -12 -33 -4 -33 11 0 9 47 39 63 40 4 0 23 -7 42
-14z m-905 -47 c0 -33 -3 -40 -17 -37 -10 2 -17 11 -17 21 1 9 2 26 3 37 0 11
8 20 16 20 11 0 15 -11 15 -41z m411 21 c1 -11 2 -28 3 -37 0 -10 -7 -19 -16
-21 -15 -3 -18 4 -18 37 0 30 4 41 15 41 8 0 16 -9 16 -20z m-473 -32 c-2 -15
-11 -24 -25 -26 -25 -4 -31 16 -11 36 20 20 40 14 36 -10z m412 -3 c0 -20 -5
-25 -25 -25 -27 0 -33 18 -13 38 20 20 38 14 38 -13z m-5130 5 c0 -5 -7 -10
-15 -10 -8 0 -15 5 -15 10 0 6 7 10 15 10 8 0 15 -4 15 -10z m5670 0 c13 -8
13 -11 -2 -27 -17 -16 -19 -16 -35 0 -16 16 -16 19 -3 27 8 5 17 10 20 10 3 0
12 -5 20 -10z m117 -6 c2 -5 -3 -19 -12 -29 -14 -19 -14 -18 -15 13 0 31 18
42 27 16z m-5951 -525 c3 -6 -15 -33 -42 -60 l-48 -49 112 0 c105 0 112 -1
112 -20 0 -19 -7 -20 -110 -20 -60 0 -110 -3 -110 -7 0 -4 21 -29 47 -55 37
-38 45 -50 35 -60 -10 -10 -27 3 -82 57 -39 38 -70 74 -70 79 0 12 131 146
142 146 4 0 10 -5 14 -11z m1404 -139 l0 -140 -25 0 -25 0 0 133 c0 74 3 137
7 140 3 4 15 7 25 7 17 0 18 -11 18 -140z m290 91 l0 -49 29 11 c62 23 112
-44 97 -127 -9 -45 -50 -80 -86 -71 -14 3 -40 6 -57 5 l-33 -1 0 134 c0 74 3
137 7 140 3 4 15 7 25 7 15 0 18 -8 18 -49z m-602 3 c24 -28 28 -49 10 -60 -6
-4 -22 6 -37 25 -54 65 -111 25 -111 -78 0 -38 5 -56 20 -71 28 -28 66 -26 86
5 17 26 54 34 54 12 0 -21 -30 -58 -56 -67 -22 -9 -23 -12 -12 -30 11 -19 10
-24 -11 -41 -28 -23 -41 -24 -41 -4 0 8 5 15 10 15 27 0 -5 47 -46 68 -54 28
-71 156 -28 215 38 52 120 58 162 11z m818 25 c10 -17 -23 -46 -37 -32 -7 7
-9 19 -6 27 7 18 33 21 43 5z m306 -28 c31 -28 33 -33 33 -101 0 -68 -2 -73
-33 -101 -29 -26 -40 -29 -97 -29 l-65 0 0 130 0 130 65 0 c57 0 68 -3 97 -29z
m-949 -43 c36 -19 46 -40 47 -94 0 -79 -55 -122 -117 -92 -28 13 -60 79 -47
99 3 5 32 9 65 9 62 0 68 4 46 35 -11 14 -22 17 -55 13 -46 -7 -62 10 -28 29
27 16 61 16 89 1z m325 -23 c44 -51 16 -156 -46 -169 -59 -14 -102 24 -102 90
0 23 3 24 60 24 44 0 60 4 60 14 0 25 -29 39 -70 33 -31 -4 -40 -2 -40 9 0 41
102 40 138 -1z m819 24 c39 -15 43 -24 43 -113 l0 -78 -26 5 c-14 2 -38 0 -54
-6 -53 -20 -103 41 -72 90 10 15 57 33 89 33 19 0 24 4 19 16 -3 9 -6 18 -6
20 0 2 -13 4 -30 4 -16 0 -30 -4 -30 -10 0 -5 -11 -10 -25 -10 -29 0 -32 11
-7 32 32 29 58 33 99 17z m-507 -94 c0 -88 -1 -95 -20 -95 -19 0 -20 7 -20 95
0 88 1 95 20 95 19 0 20 -7 20 -95z m646 35 c9 -33 19 -58 23 -55 3 3 12 29
21 58 12 40 21 53 38 55 12 2 22 -1 22 -6 0 -16 -81 -236 -92 -249 -15 -19
-68 -17 -68 2 0 8 6 15 14 15 8 0 21 9 29 21 14 19 12 29 -13 102 -15 45 -31
90 -35 100 -6 13 -2 17 18 17 23 0 28 -7 43 -60z m184 -35 c0 -88 -1 -95 -20
-95 -19 0 -20 7 -20 95 0 88 1 95 20 95 19 0 20 -7 20 -95z"/>
<path d="M1011 15726 c-66 -70 12 -182 101 -145 36 15 36 26 -1 34 -41 9 -64
39 -71 92 l-5 45 -24 -26z"/>
<path d="M6574 15726 c-3 -7 -4 -40 -2 -72 l3 -59 160 -3 c210 -4 205 -5 205
62 0 91 11 86 -186 86 -138 0 -176 -3 -180 -14z m152 -14 c6 -4 13 -26 16 -49
7 -49 -8 -69 -46 -59 -22 5 -25 11 -24 49 2 58 22 81 54 59z m77 -18 c-17 -12
-17 -13 -1 -14 21 0 40 -33 32 -54 -8 -21 -42 -30 -59 -16 -23 19 -19 76 7 94
26 19 46 10 21 -10z"/>
<path d="M6700 15685 c0 -8 5 -15 10 -15 6 0 10 7 10 15 0 8 -4 15 -10 15 -5
0 -10 -7 -10 -15z"/>
<path d="M6697 15643 c-12 -11 -8 -23 8 -23 8 0 15 7 15 15 0 16 -12 20 -23 8z"/>
<path d="M6782 15643 c5 -25 28 -28 28 -4 0 12 -6 21 -16 21 -9 0 -14 -7 -12
-17z"/>
<path d="M495 15650 c-11 -17 5 -50 25 -50 20 0 32 23 24 45 -7 17 -40 20 -49
5z"/>
<path d="M1457 15655 c-8 -20 4 -55 19 -55 17 0 18 17 2 23 -10 3 -10 7 0 19
10 13 10 17 -2 21 -8 3 -17 0 -19 -8z"/>
<path d="M2172 14931 c-20 -12 -12 -101 11 -115 28 -18 52 4 55 53 4 60 -26
88 -66 62z"/>
<path d="M2570 14910 l0 -102 32 6 c53 10 68 32 68 96 0 64 -14 83 -67 95
l-33 7 0 -102z"/>
<path d="M1660 14847 c0 -18 21 -37 42 -37 18 0 42 33 31 44 -12 12 -73 6 -73
-7z"/>
<path d="M1957 14854 c-11 -11 13 -44 31 -44 21 0 42 19 42 37 0 13 -61 19
-73 7z"/>
<path d="M2810 14855 c-17 -21 -5 -45 23 -45 29 0 52 24 43 45 -7 19 -50 19
-66 0z"/>
<path d="M3589 9260 c-91 -25 -181 -159 -255 -378 -36 -107 -96 -343 -144
-562 -22 -102 -49 -223 -60 -270 -11 -47 -23 -98 -26 -115 -4 -16 -20 -79 -36
-140 -17 -60 -34 -123 -38 -140 -58 -218 -159 -463 -255 -617 -24 -39 -42 -75
-39 -79 2 -4 18 -4 34 1 64 18 138 69 219 150 48 47 118 111 156 142 l70 55
32 104 c55 176 79 255 153 517 100 356 164 512 221 542 89 48 153 -54 281
-445 42 -126 106 -321 142 -432 37 -110 97 -279 135 -374 l68 -174 66 -33
c194 -98 372 -40 562 182 169 198 304 285 397 255 66 -22 96 -40 144 -86 51
-50 56 -56 163 -188 91 -113 108 -130 178 -181 67 -49 156 -84 212 -84 57 0
141 12 141 20 0 4 -23 10 -51 14 -89 12 -188 72 -282 171 -58 61 -367 463
-367 478 0 5 53 63 118 130 64 67 172 178 239 247 67 69 139 144 161 166 40
42 145 233 120 218 -12 -7 -187 -141 -397 -304 -53 -41 -115 -88 -136 -105
-22 -16 -46 -35 -55 -42 -117 -94 -185 -141 -194 -136 -12 8 -130 102 -491
393 -278 224 -264 214 -271 207 -8 -8 83 -183 108 -209 13 -13 48 -52 78 -88
30 -36 57 -67 60 -70 3 -3 71 -79 150 -170 80 -91 155 -176 167 -190 48 -52
53 -41 -110 -255 -206 -270 -340 -372 -406 -306 -10 10 -48 77 -83 148 -133
265 -229 525 -418 1128 -237 756 -331 940 -461 905z m147 -452 c80 -160 150
-303 155 -316 8 -21 8 -23 -5 -13 -16 13 -25 27 -162 249 -48 78 -91 142 -96
142 -4 0 -9 -57 -9 -127 -1 -71 -4 -141 -8 -158 -7 -29 -7 -28 -14 15 -3 25
-12 94 -18 153 -7 60 -15 105 -19 100 -4 -4 -60 -149 -125 -321 -120 -322
-154 -407 -155 -383 0 7 12 52 26 100 29 99 131 424 144 461 9 25 102 325 115
368 3 12 11 22 16 22 5 0 75 -131 155 -292z"/>
<path d="M1795 8654 c-117 -18 -256 -64 -380 -126 -107 -54 -228 -128 -240
-148 -5 -7 15 -35 51 -71 55 -56 58 -61 44 -82 -120 -189 -164 -303 -190 -492
-14 -99 -8 -237 14 -325 55 -223 215 -414 424 -507 106 -47 158 -57 307 -57
128 -1 147 1 225 28 113 38 282 124 273 139 -25 42 -76 107 -84 107 -5 0 -35
-13 -67 -29 -81 -40 -152 -55 -267 -55 -178 -1 -290 48 -425 183 -131 133
-183 238 -211 429 -24 169 37 391 146 538 78 103 101 121 184 140 104 24 302
25 398 2 263 -64 453 -259 508 -520 20 -95 19 -144 -9 -280 -32 -150 -64 -213
-164 -319 l-34 -36 52 -52 c28 -28 56 -51 62 -51 22 0 107 72 145 122 288 381
323 852 87 1159 -196 255 -488 359 -849 303z"/>
<path d="M3070 7012 c0 -12 -158 -166 -212 -207 -84 -63 -144 -88 -202 -83
-28 2 -67 12 -85 21 -33 17 -34 17 -90 -18 -128 -77 -234 -105 -399 -105 -116
0 -213 16 -337 54 -43 14 -81 24 -82 22 -11 -10 216 -152 317 -199 41 -19 113
-47 160 -63 76 -25 99 -28 220 -28 121 0 142 3 202 26 103 39 174 86 257 168
83 82 167 201 230 325 43 84 47 95 31 95 -5 0 -10 -4 -10 -8z"/>
<path d="M4610 6873 c-58 -29 -150 -31 -220 -4 -60 23 -63 15 -20 -52 17 -26
30 -52 30 -57 0 -4 4 -10 8 -12 5 -1 23 -25 42 -53 49 -73 146 -171 214 -216
162 -108 367 -104 561 12 72 43 224 159 209 159 -5 0 -41 -11 -79 -24 -137
-46 -261 -43 -381 10 -83 36 -134 74 -232 173 l-87 87 -45 -23z"/>
<path d="M0 1975 l0 -1975 3690 0 3690 0 0 1975 0 1975 -3690 0 -3690 0 0
-1975z"/>
</g>
</svg>
